<svg xmlns="http://www.w3.org/2000/svg" viewBox="0 0 556 356" width="556" preserveAspectRatio="xMidYMid meet" style="background-color: #ffffff; font-family: Arial, sans-serif;">
  <defs>
    <marker id="arrow-pink" viewBox="0 0 12 12" refX="10" refY="6" markerWidth="8" markerHeight="8" orient="auto">
      <path d="M 0 0 L 12 6 L 0 12 z" fill="#DB2777" />
    </marker>
    <marker id="arrow-green" viewBox="0 0 12 12" refX="10" refY="6" markerWidth="8" markerHeight="8" orient="auto">
      <path d="M 0 0 L 12 6 L 0 12 z" fill="#059669" />
    </marker>
    <marker id="arrow-blue" viewBox="0 0 12 12" refX="10" refY="6" markerWidth="8" markerHeight="8" orient="auto">
      <path d="M 0 0 L 12 6 L 0 12 z" fill="#0284C7" />
    </marker>
    <marker id="arrow-purple" viewBox="0 0 12 12" refX="10" refY="6" markerWidth="8" markerHeight="8" orient="auto">
      <path d="M 0 0 L 12 6 L 0 12 z" fill="#7E22CE" />
    </marker>
    <marker id="arrow-cyan" viewBox="0 0 12 12" refX="10" refY="6" markerWidth="8" markerHeight="8" orient="auto">
      <path d="M 0 0 L 12 6 L 0 12 z" fill="#0891B2" />
    </marker>
  </defs>
  <style>
    text, tspan {
      text-rendering: geometricPrecision;
      -webkit-font-smoothing: antialiased;
      -moz-osx-font-smoothing: grayscale;
    }
    .text-title { font-weight: 700; font-size: 25px; fill: #0F172A; }
    .text-label { font-weight: 600; font-size: 17px; fill: #334155; }
    .math { font-family: 'STIX Two Math', 'Cambria Math', 'Latin Modern Math', 'Times New Roman', serif; font-weight: 500; }
    .math-attr { font-family: 'STIX Two Math', 'Cambria Math', 'Latin Modern Math', 'Times New Roman', serif; font-size: 27px; font-weight: 500; }
    .math-attr-sub { font-size: 17px; baseline-shift: sub; }
    .math-attr-sup { font-size: 14px; baseline-shift: super; font-weight: 600; }
  </style>

  <g transform="translate(28, 28)">
    <rect x="0" y="0" width="500" height="300" fill="#F8FAFC" stroke="#CBD5E1" stroke-width="2" rx="12" />
    <text x="250" y="40" class="text-title" text-anchor="middle">Discrete Attribute Embeddings</text>

    <text x="100" y="96" class="math-attr" fill="#DB2777" text-anchor="end">
      <tspan font-style="italic">a</tspan><tspan class="math-attr-sub">k</tspan>
    </text>
    <text x="102" y="88" class="math-attr-sup" fill="#DB2777" text-anchor="start">rhym</text>
    <rect x="140" y="75" width="80" height="30" fill="#FCE7F3" stroke="#DB2777" stroke-width="1.5" rx="4" />
    <text x="180" y="96" font-size="17" font-weight="bold" fill="#DB2777" text-anchor="middle">0 … 7</text>
    <path d="M 230 90 L 260 90" fill="none" stroke="#DB2777" stroke-width="2" marker-end="url(#arrow-pink)" />
    <rect x="275" y="75" width="20" height="30" fill="#BE185D" rx="2" />

    <text x="100" y="146" class="math-attr" fill="#059669" text-anchor="end">
      <tspan font-style="italic">a</tspan><tspan class="math-attr-sub">k</tspan>
    </text>
    <text x="102" y="138" class="math-attr-sup" fill="#059669" text-anchor="start">poly</text>
    <rect x="140" y="125" width="80" height="30" fill="#D1FAE5" stroke="#059669" stroke-width="1.5" rx="4" />
    <text x="180" y="146" font-size="17" font-weight="bold" fill="#059669" text-anchor="middle">0 … 7</text>
    <path d="M 230 140 L 260 140" fill="none" stroke="#059669" stroke-width="2" marker-end="url(#arrow-green)" />
    <rect x="275" y="125" width="20" height="30" fill="#047857" rx="2" />

    <text x="100" y="196" class="math-attr" fill="#0284C7" text-anchor="end">
      <tspan font-style="italic">a</tspan><tspan class="math-attr-sub">k</tspan>
    </text>
    <text x="102" y="188" class="math-attr-sup" fill="#0284C7" text-anchor="start">vel</text>
    <rect x="140" y="175" width="80" height="30" fill="#E0F2FE" stroke="#0284C7" stroke-width="1.5" rx="4" />
    <text x="180" y="196" font-size="17" font-weight="bold" fill="#0284C7" text-anchor="middle">0 … 7</text>
    <path d="M 230 190 L 260 190" fill="none" stroke="#0284C7" stroke-width="2" marker-end="url(#arrow-blue)" />
    <rect x="275" y="175" width="20" height="30" fill="#0369A1" rx="2" />

    <text x="100" y="246" class="math-attr" fill="#7E22CE" text-anchor="end">
      <tspan font-style="italic">a</tspan><tspan class="math-attr-sub">k</tspan>
    </text>
    <text x="102" y="238" class="math-attr-sup" fill="#7E22CE" text-anchor="start">den</text>
    <rect x="140" y="225" width="80" height="30" fill="#F3E8FF" stroke="#7E22CE" stroke-width="1.5" rx="4" />
    <text x="180" y="246" font-size="17" font-weight="bold" fill="#7E22CE" text-anchor="middle">0 … 7</text>
    <path d="M 230 240 L 260 240" fill="none" stroke="#7E22CE" stroke-width="2" marker-end="url(#arrow-purple)" />
    <rect x="275" y="225" width="20" height="30" fill="#6B21A8" rx="2" />

    <path d="M 295 90 L 335 90" fill="none" stroke="#64748B" stroke-width="3" />
    <path d="M 295 140 L 335 140" fill="none" stroke="#64748B" stroke-width="3" />
    <path d="M 295 190 L 335 190" fill="none" stroke="#64748B" stroke-width="3" />
    <path d="M 295 240 L 335 240" fill="none" stroke="#64748B" stroke-width="3" />
    <path d="M 335 90 L 335 240" fill="none" stroke="#64748B" stroke-width="3" />
    <path d="M 335 165 L 368 165" fill="none" stroke="#64748B" stroke-width="3" />

    <g transform="translate(368, 121)">
      <rect x="0" y="0" width="36" height="22" fill="#BE185D" rx="2" />
      <rect x="0" y="22" width="36" height="22" fill="#047857" rx="2" />
      <rect x="0" y="44" width="36" height="22" fill="#0369A1" rx="2" />
      <rect x="0" y="66" width="36" height="22" fill="#6B21A8" rx="2" />
      <rect x="0" y="0" width="36" height="88" fill="none" stroke="#0F172A" stroke-width="2" rx="3" />
    </g>

    <text x="386" y="262" font-size="31" class="math" fill="#0F172A" text-anchor="middle">
      <tspan font-style="italic">A</tspan><tspan font-size="20" baseline-shift="sub">k</tspan><tspan> ∈ </tspan><tspan>ℝ</tspan><tspan font-size="18" baseline-shift="super">128</tspan>
    </text>
  </g>

</svg>
