<svg xmlns="http://www.w3.org/2000/svg" viewBox="0 0 560 360" width="560" height="360">
  <rect width="560" height="360" fill="#ffffff"/>
  <rect x="40" y="20" width="480" height="320" rx="12" fill="#fffbeb" stroke="#d97706" stroke-width="2"/>
  <text x="280" y="46" font-family="Arial, sans-serif" font-size="22" font-weight="700" fill="#b45309" text-anchor="middle" letter-spacing="0.5">Discrete Attribute Embeddings</text>
  <rect x="70" y="74" width="420" height="188" rx="8" fill="#ffffff" stroke="#fcd34d" stroke-width="2"/>
  <g transform="translate(3, 0)">
    <text x="108" y="106" font-family="Cambria Math, Times New Roman, serif" font-size="20" font-weight="500" fill="#DB2777" text-anchor="end">
      <tspan font-style="italic">A</tspan><tspan font-size="13" baseline-shift="sub">k</tspan>
    </text>
    <text x="110" y="89" font-family="Arial, sans-serif" font-size="11" font-weight="700" fill="#DB2777" text-anchor="start">Rhym</text>
    <rect x="148" y="85" width="88" height="30" rx="5" fill="#FCE7F3" stroke="#DB2777" stroke-width="1.5"/>
    <text x="192.0" y="106" font-family="Arial, sans-serif" font-size="15" font-weight="700" fill="#DB2777" text-anchor="middle">0 … 7</text>
    <path d="M 240 100 L 270 100" stroke="#DB2777" stroke-width="2"/>
    <polygon points="276,100 270,96 270,104" fill="#DB2777"/>
    <rect x="278" y="85" width="20" height="30" rx="3" fill="#BE185D"/>

    <text x="108" y="151" font-family="Cambria Math, Times New Roman, serif" font-size="20" font-weight="500" fill="#059669" text-anchor="end">
      <tspan font-style="italic">A</tspan><tspan font-size="13" baseline-shift="sub">k</tspan>
    </text>
    <text x="110" y="134" font-family="Arial, sans-serif" font-size="11" font-weight="700" fill="#059669" text-anchor="start">Poly</text>
    <rect x="148" y="130" width="88" height="30" rx="5" fill="#D1FAE5" stroke="#059669" stroke-width="1.5"/>
    <text x="192.0" y="151" font-family="Arial, sans-serif" font-size="15" font-weight="700" fill="#059669" text-anchor="middle">0 … 7</text>
    <path d="M 240 145 L 270 145" stroke="#059669" stroke-width="2"/>
    <polygon points="276,145 270,141 270,149" fill="#059669"/>
    <rect x="278" y="130" width="20" height="30" rx="3" fill="#047857"/>

    <text x="108" y="196" font-family="Cambria Math, Times New Roman, serif" font-size="20" font-weight="500" fill="#0284C7" text-anchor="end">
      <tspan font-style="italic">A</tspan><tspan font-size="13" baseline-shift="sub">k</tspan>
    </text>
    <text x="110" y="179" font-family="Arial, sans-serif" font-size="11" font-weight="700" fill="#0284C7" text-anchor="start">Vel</text>
    <rect x="148" y="175" width="88" height="30" rx="5" fill="#E0F2FE" stroke="#0284C7" stroke-width="1.5"/>
    <text x="192.0" y="196" font-family="Arial, sans-serif" font-size="15" font-weight="700" fill="#0284C7" text-anchor="middle">0 … 7</text>
    <path d="M 240 190 L 270 190" stroke="#0284C7" stroke-width="2"/>
    <polygon points="276,190 270,186 270,194" fill="#0284C7"/>
    <rect x="278" y="175" width="20" height="30" rx="3" fill="#0369A1"/>

    <text x="108" y="241" font-family="Cambria Math, Times New Roman, serif" font-size="20" font-weight="500" fill="#7E22CE" text-anchor="end">
      <tspan font-style="italic">A</tspan><tspan font-size="13" baseline-shift="sub">k</tspan>
    </text>
    <text x="110" y="224" font-family="Arial, sans-serif" font-size="11" font-weight="700" fill="#7E22CE" text-anchor="start">Den</text>
    <rect x="148" y="220" width="88" height="30" rx="5" fill="#F3E8FF" stroke="#7E22CE" stroke-width="1.5"/>
    <text x="192.0" y="241" font-family="Arial, sans-serif" font-size="15" font-weight="700" fill="#7E22CE" text-anchor="middle">0 … 7</text>
    <path d="M 240 235 L 270 235" stroke="#7E22CE" stroke-width="2"/>
    <polygon points="276,235 270,231 270,239" fill="#7E22CE"/>
    <rect x="278" y="220" width="20" height="30" rx="3" fill="#6B21A8"/>

    <path d="M 298 100 L 308 100" stroke="#64748b" stroke-width="2"/>
    <path d="M 298 145 L 308 145" stroke="#64748b" stroke-width="2"/>
    <path d="M 298 190 L 308 190" stroke="#64748b" stroke-width="2"/>
    <path d="M 298 235 L 308 235" stroke="#64748b" stroke-width="2"/>
    <path d="M 308 100 L 308 235" stroke="#64748b" stroke-width="2"/>
    <path d="M 308 167.5 L 342 167.5" stroke="#64748b" stroke-width="2"/>
    <rect x="342" y="113.5" width="44" height="27.0" fill="#BE185D" rx="2"/>
    <rect x="342" y="140.5" width="44" height="27.0" fill="#047857" rx="2"/>
    <rect x="342" y="167.5" width="44" height="27.0" fill="#0369A1" rx="2"/>
    <rect x="342" y="194.5" width="44" height="27.0" fill="#6B21A8" rx="2"/>
    <rect x="342" y="113.5" width="44" height="108" fill="none" stroke="#334155" stroke-width="2" rx="4"/>
    <path d="M 386 167.5 L 432 167.5" stroke="#d97706" stroke-width="2"/>
    <polygon points="440,167.5 432,163.5 432,171.5" fill="#d97706"/>
    <text x="448" y="173.5" font-family="Georgia, serif" font-style="italic" font-size="20" fill="#92400e" text-anchor="middle">A<tspan baseline-shift="sub" font-size="13">k</tspan></text>
  </g>
  <text x="280" y="302" font-family="Arial, sans-serif" font-size="21" font-weight="600" fill="#334155" text-anchor="middle">Per-Bar Attribute Encoding</text>
  <text x="280" y="322" font-family="Arial, sans-serif" font-size="18" font-weight="400" fill="#475569" text-anchor="middle">
    Maps discrete bar attributes to
    <tspan font-family="Georgia, serif" font-style="italic">A<tspan baseline-shift="sub" font-size="13">k</tspan></tspan><tspan font-family="Cambria Math, Times New Roman, serif"> ∈ ℝ</tspan><tspan font-family="Cambria Math, Times New Roman, serif" font-size="13" baseline-shift="super">128</tspan>
  </text>
</svg>